HIERARCHY
ROOT Hips
{
	OFFSET 0.000000 0.000000 0.000000
	CHANNELS 6 Xposition Yposition Zposition Xrotation Yrotation Zrotation
	JOINT LeftUpLeg_virtual
	{
		OFFSET 0.000000 0.000000 0.000000
		CHANNELS 3 Xrotation Yrotation Zrotation
		JOINT LeftUpLeg
		{
			OFFSET 10.205400 -3.823500 0.155100
			CHANNELS 3 Xrotation Yrotation Zrotation
			JOINT LeftLeg
			{
				OFFSET 0.708757 -12.982077 0.567790
				CHANNELS 3 Xrotation Yrotation Zrotation
				JOINT LeftFoot
				{
					OFFSET -0.708756 -10.717838 -2.184338
					CHANNELS 3 Xrotation Yrotation Zrotation
					JOINT LeftToeBase
					{
						OFFSET 0.108149 -7.191104 7.560241
						CHANNELS 3 Xrotation Yrotation Zrotation
						JOINT LeftToe_End
						{
							OFFSET 0.070230 0.081724 4.490308
							CHANNELS 3 Xrotation Yrotation Zrotation
							End Site
							{
								OFFSET 0 0 0
							}
						}
					}
				}
			}
		}
	}
	JOINT RightUpLeg_virtual
	{
		OFFSET 0.000000 0.000000 0.000000
		CHANNELS 3 Xrotation Yrotation Zrotation
		JOINT RightUpLeg
		{
			OFFSET -10.205400 -3.823500 0.005500
			CHANNELS 3 Xrotation Yrotation Zrotation
			JOINT RightLeg
			{
				OFFSET -0.708756 -12.982134 0.610632
				CHANNELS 3 Xrotation Yrotation Zrotation
				JOINT RightFoot
				{
					OFFSET 0.708754 -10.717769 -1.945823
					CHANNELS 3 Xrotation Yrotation Zrotation
					JOINT RightToeBase
					{
						OFFSET -0.108140 -7.191069 7.372968
						CHANNELS 3 Xrotation Yrotation Zrotation
						JOINT RightToe_End
						{
							OFFSET -0.070227 0.081735 4.479403
							CHANNELS 3 Xrotation Yrotation Zrotation
							End Site
							{
								OFFSET 0 0 0
							}
						}
					}
				}
			}
		}
	}
	JOINT Spine_virtual
	{
		OFFSET 0.000000 0.000000 0.000000
		CHANNELS 3 Xrotation Yrotation Zrotation
		JOINT Spine
		{
			OFFSET 0.000000 6.876099 0.125700
			CHANNELS 3 Xrotation Yrotation Zrotation
			JOINT Spine1
			{
				OFFSET 0.000000 5.730043 0.104720
				CHANNELS 3 Xrotation Yrotation Zrotation
				JOINT Spine1_split
				{
					OFFSET 0.000000 5.730043 0.104720
					CHANNELS 3 Xrotation Yrotation Zrotation
					JOINT Spine2
					{
						OFFSET 0.000000 5.730043 0.104720
						CHANNELS 3 Xrotation Yrotation Zrotation
						JOINT Neck_virtual
						{
							OFFSET 0.000000 0.000000 0.000000
							CHANNELS 3 Xrotation Yrotation Zrotation
							JOINT Neck
							{
								OFFSET 0.000000 10.314075 0.188496
								CHANNELS 3 Xrotation Yrotation Zrotation
								JOINT Head
								{
									OFFSET 0.000000 7.643700 -2.377400
									CHANNELS 3 Xrotation Yrotation Zrotation
									JOINT HeadTop_End
									{
										OFFSET 0.000000 43.788605 -13.619600
										CHANNELS 3 Xrotation Yrotation Zrotation
										End Site
										{
											OFFSET 0 0 0
										}
									}
								}
							}
						}
						JOINT LeftShoulder_virtual
						{
							OFFSET 0.000000 0.000000 0.000000
							CHANNELS 3 Xrotation Yrotation Zrotation
							JOINT LeftShoulder
							{
								OFFSET 2.196100 4.412489 0.087492
								CHANNELS 3 Xrotation Yrotation Zrotation
								JOINT LeftShoulder_split
								{
									OFFSET 2.196100 4.412489 0.087492
									CHANNELS 3 Xrotation Yrotation Zrotation
									JOINT LeftArm
									{
										OFFSET 8.771219 -2.981674 -0.026999
										CHANNELS 3 Xrotation Yrotation Zrotation
										JOINT LeftForeArm
										{
											OFFSET 8.512804 0.000000 -0.000000
											CHANNELS 3 Xrotation Yrotation Zrotation
											JOINT LeftHand
											{
												OFFSET 18.484802 0.000000 -0.000000
												CHANNELS 3 Xrotation Yrotation Zrotation
												End Site
												{
													OFFSET 0 0 0
												}
											}
										}
									}
								}
							}
						}
						JOINT RightShoulder_virtual
						{
							OFFSET 0.000000 0.000000 0.000000
							CHANNELS 3 Xrotation Yrotation Zrotation
							JOINT RightShoulder
							{
								OFFSET -2.196100 4.412496 0.070690
								CHANNELS 3 Xrotation Yrotation Zrotation
								JOINT RightShoulder_split
								{
									OFFSET -2.196100 4.412496 0.070690
									CHANNELS 3 Xrotation Yrotation Zrotation
									JOINT RightArm
									{
										OFFSET -8.771282 -2.981682 -0.094208
										CHANNELS 3 Xrotation Yrotation Zrotation
										JOINT RightForeArm
										{
											OFFSET -8.494598 0.000000 0.000000
											CHANNELS 3 Xrotation Yrotation Zrotation
											JOINT RightHand
											{
												OFFSET -18.483803 0.000000 0.000001
												CHANNELS 3 Xrotation Yrotation Zrotation
												End Site
												{
													OFFSET 0 0 0
												}
											}
										}
									}
								}
							}
						}
					}
				}
			}
		}
	}
}
MOTION
Frames: 7
Frame Time: 0.03333333
2.494828 34.436779 -0.057001 0.000000 0.000000 0.000000 -1.772822 -15.455050 -3.217950 -7.367981 23.991391 11.047930 19.545782 9.639571 4.306702 -14.030528 9.434600 -12.004141 2.493919 0.439781 -1.355930 0.000000 0.000000 0.000000 -1.290414 -13.216552 -3.282063 -7.398337 -18.925867 -5.584360 7.548176 12.332915 -3.721137 -1.955425 7.693465 8.381320 -1.057664 -1.132123 -0.389659 0.000000 0.000000 0.000000 -2.614993 -14.763719 -3.960256 0.678931 -0.734003 -0.738167 0.143262 -1.022397 -0.557092 1.066540 -0.961626 0.134994 0.000000 0.000000 0.000000 0.962692 -0.461366 -0.596277 1.209227 1.195447 2.434270 -1.025474 14.750115 -1.259172 0.000000 0.000000 0.000000 0.560094 -0.267068 -0.678827 -0.494235 8.936798 -0.259370 -5.617293 0.102899 -1.030563 40.729217 -59.779421 -27.687470 0.132139 -28.544580 1.457890 0.000000 0.000000 0.000000 1.060717 -0.534846 -1.040352 5.234830 4.743865 -14.439308 1.266603 4.619912 -0.461415 -39.904287 -17.991275 40.677226 179.795154 70.707600 179.958641 0.000000 0.000000 0.000000 
2.405336 34.438622 -0.061733 0.000000 0.000000 0.000000 -1.780916 -15.121846 -3.191482 -7.470774 23.846017 11.333833 19.584447 9.613691 4.346678 -13.892303 9.227787 -12.288888 2.456687 0.446741 -1.339589 0.000000 0.000000 0.000000 -1.287222 -12.879328 -3.257555 -7.191573 -18.689078 -5.487327 7.713344 12.208220 -3.464849 -2.271958 7.127923 7.951753 -0.982965 -1.170575 -0.395544 0.000000 0.000000 0.000000 -2.609024 -14.425283 -3.932261 0.641571 -0.714230 -0.634509 0.145162 -1.019350 -0.474573 1.056437 -0.859042 0.118081 0.000000 0.000000 0.000000 0.915391 -0.476387 -0.504836 1.135143 1.189190 2.331350 -1.095456 14.603650 -1.236584 0.000000 0.000000 0.000000 0.512759 -0.255252 -0.607603 -0.464222 8.904030 -0.421237 -5.619548 -0.056217 -0.981825 40.832978 -60.026202 -27.592400 0.081004 -28.524280 1.434418 0.000000 0.000000 0.000000 1.042208 -0.521351 -0.975402 5.201600 4.839766 -13.614904 1.242018 4.594213 -0.525225 -37.346112 -15.400123 40.928409 179.917824 71.435664 179.876420 0.000000 0.000000 0.000000 
2.308972 34.445461 -0.066393 0.000000 0.000000 0.000000 -1.783724 -14.754899 -3.165602 -7.579495 23.626733 11.636866 19.618665 9.578174 4.372337 -13.711666 9.029600 -12.577974 2.444030 0.456398 -1.328517 0.000000 0.000000 0.000000 -1.286240 -12.517867 -3.234816 -6.940019 -18.482531 -5.354948 7.834154 12.093391 -3.215682 -2.580978 6.561147 7.527125 -0.945114 -1.202882 -0.417461 0.000000 0.000000 0.000000 -2.593006 -14.070889 -3.908187 0.600735 -0.701121 -0.530590 0.151759 -1.026716 -0.399344 1.048532 -0.763783 0.088883 0.000000 0.000000 0.000000 0.874508 -0.495745 -0.423535 1.052514 1.184260 2.278940 -1.148076 14.455248 -1.194169 0.000000 0.000000 0.000000 0.475334 -0.253145 -0.543191 -0.434436 8.862819 -0.538278 -5.593079 -0.211293 -0.954094 40.841632 -60.296227 -27.557016 0.023487 -28.443732 1.400265 0.000000 0.000000 0.000000 1.026366 -0.516606 -0.915133 5.154248 4.929041 -12.661605 1.220993 4.565698 -0.597847 -34.722295 -12.679214 41.083212 -179.930747 72.294281 179.769773 0.000000 0.000000 0.000000 
2.206482 34.457134 -0.066475 0.000000 0.000000 0.000000 -1.766756 -14.342975 -3.125558 -7.689345 23.342638 11.932084 19.619840 9.533915 4.391062 -13.489302 8.843758 -12.872663 2.445573 0.467686 -1.319584 0.000000 0.000000 0.000000 -1.275659 -12.125344 -3.201158 -6.659287 -18.324899 -5.196909 7.894044 12.000071 -2.992070 -2.881908 6.022679 7.127901 -0.948276 -1.225055 -0.443961 0.000000 0.000000 0.000000 -2.560938 -13.696729 -3.875019 0.553458 -0.695661 -0.431615 0.160528 -1.041414 -0.336750 1.039627 -0.655229 0.052332 0.000000 0.000000 0.000000 0.836853 -0.517532 -0.357539 0.951937 1.175204 2.280423 -1.193730 14.291294 -1.120291 0.000000 0.000000 0.000000 0.442323 -0.256303 -0.492257 -0.408974 8.824138 -0.594289 -5.532885 -0.357968 -0.937688 40.762921 -60.591885 -27.593657 -0.038671 -28.293075 1.356718 0.000000 0.000000 0.000000 1.009809 -0.519018 -0.865637 5.096327 5.011828 -11.586408 1.185905 4.511990 -0.659156 -32.000587 -9.807458 41.093539 -179.740840 73.289774 179.631790 0.000000 0.000000 0.000000 
2.101820 34.470520 -0.058662 0.000000 0.000000 0.000000 -1.724930 -13.896425 -3.060867 -7.795659 23.013387 12.205680 19.572230 9.482757 4.406462 -13.232846 8.668768 -13.174750 2.444656 0.478167 -1.306575 0.000000 0.000000 0.000000 -1.239725 -11.704381 -3.145259 -6.370882 -18.238459 -5.026108 7.912463 11.926517 -2.810539 -3.196704 5.529551 6.722060 -0.936869 -1.234465 -0.461223 0.000000 0.000000 0.000000 -2.511258 -13.313183 -3.821396 0.501907 -0.699805 -0.343125 0.169054 -1.059442 -0.289256 1.027168 -0.560644 0.017621 0.000000 0.000000 0.000000 0.797914 -0.539198 -0.308771 0.826281 1.155720 2.324899 -1.233043 14.094848 -1.007915 0.000000 0.000000 0.000000 0.408928 -0.261827 -0.455834 -0.392993 8.795059 -0.582044 -5.448028 -0.489857 -0.923810 40.616454 -60.904988 -27.700100 -0.102205 -28.081611 1.310809 0.000000 0.000000 0.000000 0.987625 -0.524873 -0.828138 5.030687 5.084364 -10.415735 1.161894 4.432432 -0.706284 -29.171400 -6.794781 40.944836 -179.522097 74.420280 179.472824 0.000000 0.000000 0.000000 
1.996451 34.480354 -0.045536 0.000000 0.000000 0.000000 -1.655241 -13.441086 -2.965333 -7.898070 22.665351 12.450362 19.483376 9.425117 4.413150 -12.955544 8.504555 -13.481198 2.426798 0.486241 -1.285149 0.000000 0.000000 0.000000 -1.175017 -11.276209 -3.061747 -6.112129 -18.238536 -4.853631 7.927542 11.871199 -2.680988 -3.554447 5.093691 6.295466 -0.870282 -1.231024 -0.461825 0.000000 0.000000 0.000000 -2.440909 -12.932802 -3.737619 0.448001 -0.713168 -0.269047 0.173504 -1.079375 -0.253501 1.007601 -0.464694 -0.020484 0.000000 0.000000 0.000000 0.750363 -0.559060 -0.273564 0.671926 1.126310 2.392887 -1.269935 13.864855 -0.861392 0.000000 0.000000 0.000000 0.367375 -0.266704 -0.430550 -0.386311 8.782671 -0.513529 -5.349849 -0.615586 -0.905675 40.433634 -61.234722 -27.845607 -0.158849 -27.823848 1.269309 0.000000 0.000000 0.000000 0.955956 -0.532283 -0.800096 4.961866 5.153417 -9.184189 1.146874 4.324283 -0.743964 -26.236377 -3.659721 40.649792 -179.291332 75.713890 179.310566 0.000000 0.000000 0.000000 
1.891121 34.484241 -0.027796 0.000000 0.000000 0.000000 -1.560883 -13.003844 -2.840351 -8.004325 22.327270 12.670104 19.373941 9.368053 4.405294 -12.680615 8.359241 -13.773176 2.398068 0.490902 -1.254860 0.000000 0.000000 0.000000 -1.082548 -10.865923 -2.952506 -5.934035 -18.325693 -4.694471 8.014015 11.840033 -2.605633 -3.950814 4.726188 5.870412 -0.783947 -1.219446 -0.449513 0.000000 0.000000 0.000000 -2.346516 -12.562874 -3.623883 0.393598 -0.734799 -0.207592 0.169353 -1.098675 -0.221658 0.990487 -0.389484 -0.047343 0.000000 0.000000 0.000000 0.690354 -0.576751 -0.243289 0.488908 1.090860 2.459747 -1.307759 13.601738 -0.693821 0.000000 0.000000 0.000000 0.312372 -0.268746 -0.408091 -0.387630 8.786289 -0.420635 -5.259136 -0.723845 -0.886093 40.292662 -61.567865 -27.963682 -0.202146 -27.539125 1.240420 0.000000 0.000000 0.000000 0.910971 -0.539036 -0.774244 4.891617 5.226252 -7.935626 1.143914 4.213389 -0.779877 -23.231019 -0.446228 40.261394 -179.064570 77.221149 179.155247 0.000000 0.000000 0.000000 
